<?xml version="1.0" encoding="UTF-8" standalone="no"?>
<!DOCTYPE svg PUBLIC "-//W3C//DTD SVG 1.1//EN"
 "http://www.w3.org/Graphics/SVG/1.1/DTD/svg11.dtd">
<!-- Generated by graphviz version 2.47.0 (20210316.0004)
 -->
<!-- Title: dependencies Pages: 1 -->
<svg width="5919pt" height="284pt"
 viewBox="0.00 0.00 5919.00 284.00" xmlns="http://www.w3.org/2000/svg" xmlns:xlink="http://www.w3.org/1999/xlink">
<g id="graph0" class="graph" transform="scale(1 1) rotate(0) translate(4 280)">
<title>dependencies</title>
<polygon fill="white" stroke="transparent" points="-4,4 -4,-280 5915,-280 5915,4 -4,4"/>
<text text-anchor="start" x="2934.51" y="-42.4" font-family="Times-12" font-weight="bold" font-size="14.00">Legend</text>
<polygon fill="#ffffb3" stroke="transparent" points="2721.5,-10 2721.5,-30 2741.5,-30 2741.5,-10 2721.5,-10"/>
<text text-anchor="start" x="2745.13" y="-15.4" font-family="Times-12" font-size="14.00"> &#160;Declarations</text>
<polygon fill="#8dd3c7" stroke="transparent" points="2834.5,-10 2834.5,-30 2854.5,-30 2854.5,-10 2834.5,-10"/>
<text text-anchor="start" x="2858.23" y="-15.4" font-family="Times-12" font-size="14.00"> &#160;Module</text>
<polygon fill="#80b1d3" stroke="transparent" points="2920.5,-10 2920.5,-30 2940.5,-30 2940.5,-10 2920.5,-10"/>
<text text-anchor="start" x="2944.28" y="-15.4" font-family="Times-12" font-size="14.00"> &#160;Bootstrap</text>
<polygon fill="#fdb462" stroke="transparent" points="3017.5,-10 3017.5,-30 3037.5,-30 3037.5,-10 3017.5,-10"/>
<text text-anchor="start" x="3041.17" y="-15.4" font-family="Times-12" font-size="14.00"> &#160;Providers</text>
<polygon fill="#fb8072" stroke="transparent" points="3113.5,-10 3113.5,-30 3133.5,-30 3133.5,-10 3113.5,-10"/>
<text text-anchor="start" x="3137.23" y="-15.4" font-family="Times-12" font-size="14.00"> &#160;Exports</text>
<g id="clust1" class="cluster">
<title>cluster_AdminLayoutModule</title>
<polygon fill="none" stroke="black" stroke-dasharray="1,5" points="8,-70 8,-195 4216,-195 4216,-70 8,-70"/>
</g>
<g id="clust2" class="cluster">
<title>cluster_AdminLayoutModule_declarations</title>
<polygon fill="none" stroke="black" points="16,-78 16,-130 4208,-130 4208,-78 16,-78"/>
</g>
<g id="clust31" class="cluster">
<title>cluster_AppModule</title>
<polygon fill="none" stroke="black" stroke-dasharray="1,5" points="4224,-70 4224,-268 5451,-268 5451,-70 4224,-70"/>
</g>
<g id="clust32" class="cluster">
<title>cluster_AppModule_declarations</title>
<polygon fill="none" stroke="black" points="4790,-78 4790,-130 5443,-130 5443,-78 4790,-78"/>
</g>
<g id="clust37" class="cluster">
<title>cluster_AppModule_imports</title>
<polygon fill="none" stroke="black" points="4638,-78 4638,-130 4782,-130 4782,-78 4638,-78"/>
</g>
<g id="clust39" class="cluster">
<title>cluster_AppModule_bootstrap</title>
<polygon fill="none" stroke="black" points="4793,-208 4793,-260 4917,-260 4917,-208 4793,-208"/>
</g>
<g id="clust40" class="cluster">
<title>cluster_AppModule_providers</title>
<polygon fill="none" stroke="black" points="4232,-78 4232,-130 4630,-130 4630,-78 4232,-78"/>
</g>
<g id="clust47" class="cluster">
<title>cluster_ComponentsModule</title>
<polygon fill="none" stroke="black" stroke-dasharray="1,5" points="5459,-70 5459,-268 5903,-268 5903,-70 5459,-70"/>
</g>
<g id="clust48" class="cluster">
<title>cluster_ComponentsModule_declarations</title>
<polygon fill="none" stroke="black" points="5473,-78 5473,-130 5889,-130 5889,-78 5473,-78"/>
</g>
<g id="clust53" class="cluster">
<title>cluster_ComponentsModule_exports</title>
<polygon fill="none" stroke="black" points="5467,-208 5467,-260 5895,-260 5895,-208 5467,-208"/>
</g>
<!-- AddDonationComponent -->
<g id="node1" class="node">
<title>AddDonationComponent</title>
<polygon fill="#ffffb3" stroke="black" points="4199.54,-122 4042.46,-122 4042.46,-86 4199.54,-86 4199.54,-122"/>
<text text-anchor="middle" x="4121" y="-99.8" font-family="Times,serif" font-size="14.00">AddDonationComponent</text>
</g>
<!-- AdminLayoutModule -->
<g id="node25" class="node">
<title>AdminLayoutModule</title>
<polygon fill="#8dd3c7" stroke="black" points="2120.1,-187 2117.1,-191 2096.1,-191 2093.1,-187 1981.9,-187 1981.9,-151 2120.1,-151 2120.1,-187"/>
<text text-anchor="middle" x="2051" y="-164.8" font-family="Times,serif" font-size="14.00">AdminLayoutModule</text>
</g>
<!-- AddDonationComponent&#45;&gt;AdminLayoutModule -->
<g id="edge1" class="edge">
<title>AddDonationComponent&#45;&gt;AdminLayoutModule</title>
<path fill="none" stroke="black" d="M4121,-122.29C4121,-144.21 4121,-178 4121,-178 4121,-178 2130.17,-178 2130.17,-178"/>
<polygon fill="black" stroke="black" points="2130.17,-174.5 2120.17,-178 2130.17,-181.5 2130.17,-174.5"/>
</g>
<!-- AddExpenditureComponent -->
<g id="node2" class="node">
<title>AddExpenditureComponent</title>
<polygon fill="#ffffb3" stroke="black" points="4023.86,-122 3850.14,-122 3850.14,-86 4023.86,-86 4023.86,-122"/>
<text text-anchor="middle" x="3937" y="-99.8" font-family="Times,serif" font-size="14.00">AddExpenditureComponent</text>
</g>
<!-- AddExpenditureComponent&#45;&gt;AdminLayoutModule -->
<g id="edge2" class="edge">
<title>AddExpenditureComponent&#45;&gt;AdminLayoutModule</title>
<path fill="none" stroke="black" d="M3937,-122.28C3937,-143.32 3937,-175 3937,-175 3937,-175 2130.08,-175 2130.08,-175"/>
<polygon fill="black" stroke="black" points="2130.08,-171.5 2120.08,-175 2130.08,-178.5 2130.08,-171.5"/>
</g>
<!-- AddMemberFormComponent -->
<g id="node3" class="node">
<title>AddMemberFormComponent</title>
<polygon fill="#ffffb3" stroke="black" points="3831.7,-122 3648.3,-122 3648.3,-86 3831.7,-86 3831.7,-122"/>
<text text-anchor="middle" x="3740" y="-99.8" font-family="Times,serif" font-size="14.00">AddMemberFormComponent</text>
</g>
<!-- AddMemberFormComponent&#45;&gt;AdminLayoutModule -->
<g id="edge3" class="edge">
<title>AddMemberFormComponent&#45;&gt;AdminLayoutModule</title>
<path fill="none" stroke="black" d="M3740,-122.13C3740,-142.57 3740,-173 3740,-173 3740,-173 2130.09,-173 2130.09,-173"/>
<polygon fill="black" stroke="black" points="2130.09,-169.5 2120.09,-173 2130.09,-176.5 2130.09,-169.5"/>
</g>
<!-- ContactUsComponent -->
<g id="node4" class="node">
<title>ContactUsComponent</title>
<polygon fill="#ffffb3" stroke="black" points="3630.43,-122 3489.57,-122 3489.57,-86 3630.43,-86 3630.43,-122"/>
<text text-anchor="middle" x="3560" y="-99.8" font-family="Times,serif" font-size="14.00">ContactUsComponent</text>
</g>
<!-- ContactUsComponent&#45;&gt;AdminLayoutModule -->
<g id="edge4" class="edge">
<title>ContactUsComponent&#45;&gt;AdminLayoutModule</title>
<path fill="none" stroke="black" d="M3560,-122.31C3560,-142.15 3560,-171 3560,-171 3560,-171 2130.26,-171 2130.26,-171"/>
<polygon fill="black" stroke="black" points="2130.26,-167.5 2120.26,-171 2130.26,-174.5 2130.26,-167.5"/>
</g>
<!-- DashboardComponent -->
<g id="node5" class="node">
<title>DashboardComponent</title>
<polygon fill="#ffffb3" stroke="black" points="3471.97,-122 3330.03,-122 3330.03,-86 3471.97,-86 3471.97,-122"/>
<text text-anchor="middle" x="3401" y="-99.8" font-family="Times,serif" font-size="14.00">DashboardComponent</text>
</g>
<!-- DashboardComponent&#45;&gt;AdminLayoutModule -->
<g id="edge5" class="edge">
<title>DashboardComponent&#45;&gt;AdminLayoutModule</title>
<path fill="none" stroke="black" d="M3401,-122.17C3401,-141.09 3401,-168 3401,-168 3401,-168 2130.27,-168 2130.27,-168"/>
<polygon fill="black" stroke="black" points="2130.27,-164.5 2120.27,-168 2130.27,-171.5 2130.27,-164.5"/>
</g>
<!-- DonatorReportSelModalComponent -->
<g id="node6" class="node">
<title>DonatorReportSelModalComponent</title>
<polygon fill="#ffffb3" stroke="black" points="3311.74,-122 3092.26,-122 3092.26,-86 3311.74,-86 3311.74,-122"/>
<text text-anchor="middle" x="3202" y="-99.8" font-family="Times,serif" font-size="14.00">DonatorReportSelModalComponent</text>
</g>
<!-- DonatorReportSelModalComponent&#45;&gt;AdminLayoutModule -->
<g id="edge6" class="edge">
<title>DonatorReportSelModalComponent&#45;&gt;AdminLayoutModule</title>
<path fill="none" stroke="black" d="M3202,-122.27C3202,-140.56 3202,-166 3202,-166 3202,-166 2130.41,-166 2130.41,-166"/>
<polygon fill="black" stroke="black" points="2130.41,-162.5 2120.41,-166 2130.41,-169.5 2130.41,-162.5"/>
</g>
<!-- DonatorsManagingComponent -->
<g id="node7" class="node">
<title>DonatorsManagingComponent</title>
<polygon fill="#ffffb3" stroke="black" points="3073.91,-122 2884.09,-122 2884.09,-86 3073.91,-86 3073.91,-122"/>
<text text-anchor="middle" x="2979" y="-99.8" font-family="Times,serif" font-size="14.00">DonatorsManagingComponent</text>
</g>
<!-- DonatorsManagingComponent&#45;&gt;AdminLayoutModule -->
<g id="edge7" class="edge">
<title>DonatorsManagingComponent&#45;&gt;AdminLayoutModule</title>
<path fill="none" stroke="black" d="M2979,-122.02C2979,-139.37 2979,-163 2979,-163 2979,-163 2130.37,-163 2130.37,-163"/>
<polygon fill="black" stroke="black" points="2130.37,-159.5 2120.37,-163 2130.37,-166.5 2130.37,-159.5"/>
</g>
<!-- DonatorsReportComponent -->
<g id="node8" class="node">
<title>DonatorsReportComponent</title>
<polygon fill="#ffffb3" stroke="black" points="2866.25,-122 2695.75,-122 2695.75,-86 2866.25,-86 2866.25,-122"/>
<text text-anchor="middle" x="2781" y="-99.8" font-family="Times,serif" font-size="14.00">DonatorsReportComponent</text>
</g>
<!-- DonatorsReportComponent&#45;&gt;AdminLayoutModule -->
<g id="edge8" class="edge">
<title>DonatorsReportComponent&#45;&gt;AdminLayoutModule</title>
<path fill="none" stroke="black" d="M2781,-122.04C2781,-138.73 2781,-161 2781,-161 2781,-161 2130.33,-161 2130.33,-161"/>
<polygon fill="black" stroke="black" points="2130.33,-157.5 2120.33,-161 2130.33,-164.5 2130.33,-157.5"/>
</g>
<!-- ExpendituresDisplayComponent -->
<g id="node9" class="node">
<title>ExpendituresDisplayComponent</title>
<polygon fill="#ffffb3" stroke="black" points="2677.25,-122 2478.75,-122 2478.75,-86 2677.25,-86 2677.25,-122"/>
<text text-anchor="middle" x="2578" y="-99.8" font-family="Times,serif" font-size="14.00">ExpendituresDisplayComponent</text>
</g>
<!-- ExpendituresDisplayComponent&#45;&gt;AdminLayoutModule -->
<g id="edge9" class="edge">
<title>ExpendituresDisplayComponent&#45;&gt;AdminLayoutModule</title>
<path fill="none" stroke="black" d="M2578,-122.01C2578,-138.05 2578,-159 2578,-159 2578,-159 2130.17,-159 2130.17,-159"/>
<polygon fill="black" stroke="black" points="2130.17,-155.5 2120.17,-159 2130.17,-162.5 2130.17,-155.5"/>
</g>
<!-- IconsComponent -->
<g id="node10" class="node">
<title>IconsComponent</title>
<polygon fill="#ffffb3" stroke="black" points="2460.65,-122 2349.35,-122 2349.35,-86 2460.65,-86 2460.65,-122"/>
<text text-anchor="middle" x="2405" y="-99.8" font-family="Times,serif" font-size="14.00">IconsComponent</text>
</g>
<!-- IconsComponent&#45;&gt;AdminLayoutModule -->
<g id="edge10" class="edge">
<title>IconsComponent&#45;&gt;AdminLayoutModule</title>
<path fill="none" stroke="black" d="M2405,-122.19C2405,-137.18 2405,-156 2405,-156 2405,-156 2130.1,-156 2130.1,-156"/>
<polygon fill="black" stroke="black" points="2130.1,-152.5 2120.1,-156 2130.1,-159.5 2130.1,-152.5"/>
</g>
<!-- InfoPageComponent -->
<g id="node11" class="node">
<title>InfoPageComponent</title>
<polygon fill="#ffffb3" stroke="black" points="2330.87,-122 2199.13,-122 2199.13,-86 2330.87,-86 2330.87,-122"/>
<text text-anchor="middle" x="2265" y="-99.8" font-family="Times,serif" font-size="14.00">InfoPageComponent</text>
</g>
<!-- InfoPageComponent&#45;&gt;AdminLayoutModule -->
<g id="edge11" class="edge">
<title>InfoPageComponent&#45;&gt;AdminLayoutModule</title>
<path fill="none" stroke="black" d="M2265,-122.05C2265,-136.37 2265,-154 2265,-154 2265,-154 2130.18,-154 2130.18,-154"/>
<polygon fill="black" stroke="black" points="2130.18,-150.5 2120.18,-154 2130.18,-157.5 2130.18,-150.5"/>
</g>
<!-- InvoiceComponent -->
<g id="node12" class="node">
<title>InvoiceComponent</title>
<polygon fill="#ffffb3" stroke="black" points="2180.81,-122 2057.19,-122 2057.19,-86 2180.81,-86 2180.81,-122"/>
<text text-anchor="middle" x="2119" y="-99.8" font-family="Times,serif" font-size="14.00">InvoiceComponent</text>
</g>
<!-- InvoiceComponent&#45;&gt;AdminLayoutModule -->
<g id="edge12" class="edge">
<title>InvoiceComponent&#45;&gt;AdminLayoutModule</title>
<path fill="none" stroke="black" d="M2088.7,-122.11C2088.7,-122.11 2088.7,-140.99 2088.7,-140.99"/>
<polygon fill="black" stroke="black" points="2085.2,-140.99 2088.7,-150.99 2092.2,-140.99 2085.2,-140.99"/>
</g>
<!-- MapsComponent -->
<g id="node13" class="node">
<title>MapsComponent</title>
<polygon fill="#ffffb3" stroke="black" points="2039.44,-122 1926.56,-122 1926.56,-86 2039.44,-86 2039.44,-122"/>
<text text-anchor="middle" x="1983" y="-99.8" font-family="Times,serif" font-size="14.00">MapsComponent</text>
</g>
<!-- MapsComponent&#45;&gt;AdminLayoutModule -->
<g id="edge13" class="edge">
<title>MapsComponent&#45;&gt;AdminLayoutModule</title>
<path fill="none" stroke="black" d="M2010.59,-122.11C2010.59,-122.11 2010.59,-140.99 2010.59,-140.99"/>
<polygon fill="black" stroke="black" points="2007.09,-140.99 2010.59,-150.99 2014.09,-140.99 2007.09,-140.99"/>
</g>
<!-- MemberAccountPageComponent -->
<g id="node14" class="node">
<title>MemberAccountPageComponent</title>
<polygon fill="#ffffb3" stroke="black" points="1908.9,-122 1705.1,-122 1705.1,-86 1908.9,-86 1908.9,-122"/>
<text text-anchor="middle" x="1807" y="-99.8" font-family="Times,serif" font-size="14.00">MemberAccountPageComponent</text>
</g>
<!-- MemberAccountPageComponent&#45;&gt;AdminLayoutModule -->
<g id="edge14" class="edge">
<title>MemberAccountPageComponent&#45;&gt;AdminLayoutModule</title>
<path fill="none" stroke="black" d="M1807,-122.05C1807,-136.37 1807,-154 1807,-154 1807,-154 1971.73,-154 1971.73,-154"/>
<polygon fill="black" stroke="black" points="1971.73,-157.5 1981.73,-154 1971.73,-150.5 1971.73,-157.5"/>
</g>
<!-- MemberDetailsComponent -->
<g id="node15" class="node">
<title>MemberDetailsComponent</title>
<polygon fill="#ffffb3" stroke="black" points="1687.41,-122 1518.59,-122 1518.59,-86 1687.41,-86 1687.41,-122"/>
<text text-anchor="middle" x="1603" y="-99.8" font-family="Times,serif" font-size="14.00">MemberDetailsComponent</text>
</g>
<!-- MemberDetailsComponent&#45;&gt;AdminLayoutModule -->
<g id="edge15" class="edge">
<title>MemberDetailsComponent&#45;&gt;AdminLayoutModule</title>
<path fill="none" stroke="black" d="M1603,-122.24C1603,-137.57 1603,-157 1603,-157 1603,-157 1971.49,-157 1971.49,-157"/>
<polygon fill="black" stroke="black" points="1971.49,-160.5 1981.49,-157 1971.49,-153.5 1971.49,-160.5"/>
</g>
<!-- NotificationsComponent -->
<g id="node16" class="node">
<title>NotificationsComponent</title>
<polygon fill="#ffffb3" stroke="black" points="1501.43,-122 1346.57,-122 1346.57,-86 1501.43,-86 1501.43,-122"/>
<text text-anchor="middle" x="1424" y="-99.8" font-family="Times,serif" font-size="14.00">NotificationsComponent</text>
</g>
<!-- NotificationsComponent&#45;&gt;AdminLayoutModule -->
<g id="edge16" class="edge">
<title>NotificationsComponent&#45;&gt;AdminLayoutModule</title>
<path fill="none" stroke="black" d="M1424,-122.03C1424,-138.4 1424,-160 1424,-160 1424,-160 1971.81,-160 1971.81,-160"/>
<polygon fill="black" stroke="black" points="1971.81,-163.5 1981.81,-160 1971.81,-156.5 1971.81,-163.5"/>
</g>
<!-- PaginationComponent -->
<g id="node17" class="node">
<title>PaginationComponent</title>
<polygon fill="#ffffb3" stroke="black" points="1328.72,-122 1187.28,-122 1187.28,-86 1328.72,-86 1328.72,-122"/>
<text text-anchor="middle" x="1258" y="-99.8" font-family="Times,serif" font-size="14.00">PaginationComponent</text>
</g>
<!-- PaginationComponent&#45;&gt;AdminLayoutModule -->
<g id="edge17" class="edge">
<title>PaginationComponent&#45;&gt;AdminLayoutModule</title>
<path fill="none" stroke="black" d="M1258,-122.02C1258,-139.37 1258,-163 1258,-163 1258,-163 1971.67,-163 1971.67,-163"/>
<polygon fill="black" stroke="black" points="1971.67,-166.5 1981.67,-163 1971.67,-159.5 1971.67,-166.5"/>
</g>
<!-- PledgePaymentComponent -->
<g id="node18" class="node">
<title>PledgePaymentComponent</title>
<polygon fill="#ffffb3" stroke="black" points="1169.43,-122 1000.57,-122 1000.57,-86 1169.43,-86 1169.43,-122"/>
<text text-anchor="middle" x="1085" y="-99.8" font-family="Times,serif" font-size="14.00">PledgePaymentComponent</text>
</g>
<!-- PledgePaymentComponent&#45;&gt;AdminLayoutModule -->
<g id="edge18" class="edge">
<title>PledgePaymentComponent&#45;&gt;AdminLayoutModule</title>
<path fill="none" stroke="black" d="M1085,-122.27C1085,-140.56 1085,-166 1085,-166 1085,-166 1971.92,-166 1971.92,-166"/>
<polygon fill="black" stroke="black" points="1971.92,-169.5 1981.92,-166 1971.92,-162.5 1971.92,-169.5"/>
</g>
<!-- TableListComponent -->
<g id="node19" class="node">
<title>TableListComponent</title>
<polygon fill="#ffffb3" stroke="black" points="982.48,-122 847.52,-122 847.52,-86 982.48,-86 982.48,-122"/>
<text text-anchor="middle" x="915" y="-99.8" font-family="Times,serif" font-size="14.00">TableListComponent</text>
</g>
<!-- TableListComponent&#45;&gt;AdminLayoutModule -->
<g id="edge19" class="edge">
<title>TableListComponent&#45;&gt;AdminLayoutModule</title>
<path fill="none" stroke="black" d="M915,-122.11C915,-141.34 915,-169 915,-169 915,-169 1971.65,-169 1971.65,-169"/>
<polygon fill="black" stroke="black" points="1971.65,-172.5 1981.65,-169 1971.65,-165.5 1971.65,-172.5"/>
</g>
<!-- TypographyComponent -->
<g id="node20" class="node">
<title>TypographyComponent</title>
<polygon fill="#ffffb3" stroke="black" points="829.76,-122 680.24,-122 680.24,-86 829.76,-86 829.76,-122"/>
<text text-anchor="middle" x="755" y="-99.8" font-family="Times,serif" font-size="14.00">TypographyComponent</text>
</g>
<!-- TypographyComponent&#45;&gt;AdminLayoutModule -->
<g id="edge20" class="edge">
<title>TypographyComponent&#45;&gt;AdminLayoutModule</title>
<path fill="none" stroke="black" d="M755,-122.22C755,-142.37 755,-172 755,-172 755,-172 1971.78,-172 1971.78,-172"/>
<polygon fill="black" stroke="black" points="1971.78,-175.5 1981.78,-172 1971.78,-168.5 1971.78,-175.5"/>
</g>
<!-- UpgradeComponent -->
<g id="node21" class="node">
<title>UpgradeComponent</title>
<polygon fill="#ffffb3" stroke="black" points="661.53,-122 532.47,-122 532.47,-86 661.53,-86 661.53,-122"/>
<text text-anchor="middle" x="597" y="-99.8" font-family="Times,serif" font-size="14.00">UpgradeComponent</text>
</g>
<!-- UpgradeComponent&#45;&gt;AdminLayoutModule -->
<g id="edge21" class="edge">
<title>UpgradeComponent&#45;&gt;AdminLayoutModule</title>
<path fill="none" stroke="black" d="M597,-122.28C597,-143.32 597,-175 597,-175 597,-175 1971.85,-175 1971.85,-175"/>
<polygon fill="black" stroke="black" points="1971.85,-178.5 1981.85,-175 1971.85,-171.5 1971.85,-178.5"/>
</g>
<!-- UserManagementComponent -->
<g id="node22" class="node">
<title>UserManagementComponent</title>
<polygon fill="#ffffb3" stroke="black" points="514.34,-122 333.66,-122 333.66,-86 514.34,-86 514.34,-122"/>
<text text-anchor="middle" x="424" y="-99.8" font-family="Times,serif" font-size="14.00">UserManagementComponent</text>
</g>
<!-- UserManagementComponent&#45;&gt;AdminLayoutModule -->
<g id="edge22" class="edge">
<title>UserManagementComponent&#45;&gt;AdminLayoutModule</title>
<path fill="none" stroke="black" d="M424,-122.29C424,-144.21 424,-178 424,-178 424,-178 1971.87,-178 1971.87,-178"/>
<polygon fill="black" stroke="black" points="1971.87,-181.5 1981.87,-178 1971.87,-174.5 1971.87,-181.5"/>
</g>
<!-- UserProfileComponent -->
<g id="node23" class="node">
<title>UserProfileComponent</title>
<polygon fill="#ffffb3" stroke="black" points="315.86,-122 170.14,-122 170.14,-86 315.86,-86 315.86,-122"/>
<text text-anchor="middle" x="243" y="-99.8" font-family="Times,serif" font-size="14.00">UserProfileComponent</text>
</g>
<!-- UserProfileComponent&#45;&gt;AdminLayoutModule -->
<g id="edge23" class="edge">
<title>UserProfileComponent&#45;&gt;AdminLayoutModule</title>
<path fill="none" stroke="black" d="M243,-122.25C243,-145.02 243,-181 243,-181 243,-181 1971.78,-181 1971.78,-181"/>
<polygon fill="black" stroke="black" points="1971.78,-184.5 1981.78,-181 1971.78,-177.5 1971.78,-184.5"/>
</g>
<!-- ZmanimComponent -->
<g id="node24" class="node">
<title>ZmanimComponent</title>
<polygon fill="#ffffb3" stroke="black" points="152.27,-122 23.73,-122 23.73,-86 152.27,-86 152.27,-122"/>
<text text-anchor="middle" x="88" y="-99.8" font-family="Times,serif" font-size="14.00">ZmanimComponent</text>
</g>
<!-- ZmanimComponent&#45;&gt;AdminLayoutModule -->
<g id="edge24" class="edge">
<title>ZmanimComponent&#45;&gt;AdminLayoutModule</title>
<path fill="none" stroke="black" d="M88,-122.15C88,-145.76 88,-184 88,-184 88,-184 1971.71,-184 1971.71,-184"/>
<polygon fill="black" stroke="black" points="1971.71,-187.5 1981.71,-184 1971.71,-180.5 1971.71,-187.5"/>
</g>
<!-- AdminLayoutComponent -->
<g id="node26" class="node">
<title>AdminLayoutComponent</title>
<polygon fill="#ffffb3" stroke="black" points="5434.88,-122 5275.12,-122 5275.12,-86 5434.88,-86 5434.88,-122"/>
<text text-anchor="middle" x="5355" y="-99.8" font-family="Times,serif" font-size="14.00">AdminLayoutComponent</text>
</g>
<!-- AppModule -->
<g id="node30" class="node">
<title>AppModule</title>
<polygon fill="#8dd3c7" stroke="black" points="4896.66,-187 4893.66,-191 4872.66,-191 4869.66,-187 4813.34,-187 4813.34,-151 4896.66,-151 4896.66,-187"/>
<text text-anchor="middle" x="4855" y="-164.8" font-family="Times,serif" font-size="14.00">AppModule</text>
</g>
<!-- AdminLayoutComponent&#45;&gt;AppModule -->
<g id="edge25" class="edge">
<title>AdminLayoutComponent&#45;&gt;AppModule</title>
<path fill="none" stroke="black" d="M5355,-122.11C5355,-141.34 5355,-169 5355,-169 5355,-169 4906.77,-169 4906.77,-169"/>
<polygon fill="black" stroke="black" points="4906.77,-165.5 4896.77,-169 4906.77,-172.5 4906.77,-165.5"/>
</g>
<!-- AppComponent -->
<g id="node27" class="node">
<title>AppComponent</title>
<polygon fill="#ffffb3" stroke="black" points="5256.94,-122 5151.06,-122 5151.06,-86 5256.94,-86 5256.94,-122"/>
<text text-anchor="middle" x="5204" y="-99.8" font-family="Times,serif" font-size="14.00">AppComponent</text>
</g>
<!-- AppComponent&#45;&gt;AppModule -->
<g id="edge26" class="edge">
<title>AppComponent&#45;&gt;AppModule</title>
<path fill="none" stroke="black" d="M5204,-122.02C5204,-139.37 5204,-163 5204,-163 5204,-163 4906.75,-163 4906.75,-163"/>
<polygon fill="black" stroke="black" points="4906.75,-159.5 4896.75,-163 4906.75,-166.5 4906.75,-159.5"/>
</g>
<!-- CreditPledgePaymentComponent -->
<g id="node28" class="node">
<title>CreditPledgePaymentComponent</title>
<polygon fill="#ffffb3" stroke="black" points="5133.92,-122 4930.08,-122 4930.08,-86 5133.92,-86 5133.92,-122"/>
<text text-anchor="middle" x="5032" y="-99.8" font-family="Times,serif" font-size="14.00">CreditPledgePaymentComponent</text>
</g>
<!-- CreditPledgePaymentComponent&#45;&gt;AppModule -->
<g id="edge27" class="edge">
<title>CreditPledgePaymentComponent&#45;&gt;AppModule</title>
<path fill="none" stroke="black" d="M5032,-122.24C5032,-137.57 5032,-157 5032,-157 5032,-157 4906.95,-157 4906.95,-157"/>
<polygon fill="black" stroke="black" points="4906.95,-153.5 4896.95,-157 4906.95,-160.5 4906.95,-153.5"/>
</g>
<!-- LoginComponent -->
<g id="node29" class="node">
<title>LoginComponent</title>
<polygon fill="#ffffb3" stroke="black" points="4912.28,-122 4797.72,-122 4797.72,-86 4912.28,-86 4912.28,-122"/>
<text text-anchor="middle" x="4855" y="-99.8" font-family="Times,serif" font-size="14.00">LoginComponent</text>
</g>
<!-- LoginComponent&#45;&gt;AppModule -->
<g id="edge28" class="edge">
<title>LoginComponent&#45;&gt;AppModule</title>
<path fill="none" stroke="black" d="M4855,-122.11C4855,-122.11 4855,-140.99 4855,-140.99"/>
<polygon fill="black" stroke="black" points="4851.5,-140.99 4855,-150.99 4858.5,-140.99 4851.5,-140.99"/>
</g>
<!-- AppComponent  -->
<g id="node32" class="node">
<title>AppComponent </title>
<polygon fill="#80b1d3" stroke="black" points="4909.44,-252 4800.56,-252 4800.56,-216 4909.44,-216 4909.44,-252"/>
<text text-anchor="middle" x="4855" y="-229.8" font-family="Times,serif" font-size="14.00">AppComponent </text>
</g>
<!-- AppModule&#45;&gt;AppComponent  -->
<g id="edge30" class="edge">
<title>AppModule&#45;&gt;AppComponent </title>
<path fill="none" stroke="black" stroke-dasharray="1,5" d="M4855,-187.11C4855,-187.11 4855,-205.99 4855,-205.99"/>
<polygon fill="black" stroke="black" points="4851.5,-205.99 4855,-215.99 4858.5,-205.99 4851.5,-205.99"/>
</g>
<!-- AppRoutingModule -->
<g id="node31" class="node">
<title>AppRoutingModule</title>
<polygon fill="#8dd3c7" stroke="black" points="4774.27,-122 4771.27,-126 4750.27,-126 4747.27,-122 4645.73,-122 4645.73,-86 4774.27,-86 4774.27,-122"/>
<text text-anchor="middle" x="4710" y="-99.8" font-family="Times,serif" font-size="14.00">AppRoutingModule</text>
</g>
<!-- AppRoutingModule&#45;&gt;AppModule -->
<g id="edge29" class="edge">
<title>AppRoutingModule&#45;&gt;AppModule</title>
<path fill="none" stroke="black" d="M4710,-122.01C4710,-144.49 4710,-180 4710,-180 4710,-180 4803.06,-180 4803.06,-180"/>
<polygon fill="black" stroke="black" points="4803.06,-183.5 4813.06,-180 4803.06,-176.5 4803.06,-183.5"/>
</g>
<!-- JwtInterceptorService -->
<g id="node33" class="node">
<title>JwtInterceptorService</title>
<ellipse fill="#fdb462" stroke="black" cx="4526" cy="-104" rx="95.52" ry="18"/>
<text text-anchor="middle" x="4526" y="-99.8" font-family="Times,serif" font-size="14.00">JwtInterceptorService</text>
</g>
<!-- JwtInterceptorService&#45;&gt;AppModule -->
<g id="edge31" class="edge">
<title>JwtInterceptorService&#45;&gt;AppModule</title>
<path fill="none" stroke="black" d="M4526,-122.32C4526,-145.66 4526,-183 4526,-183 4526,-183 4803.33,-183 4803.33,-183"/>
<polygon fill="black" stroke="black" points="4803.33,-186.5 4813.33,-183 4803.33,-179.5 4803.33,-186.5"/>
</g>
<!-- RedirectInterceptor -->
<g id="node34" class="node">
<title>RedirectInterceptor</title>
<ellipse fill="#fdb462" stroke="black" cx="4326" cy="-104" rx="86.21" ry="18"/>
<text text-anchor="middle" x="4326" y="-99.8" font-family="Times,serif" font-size="14.00">RedirectInterceptor</text>
</g>
<!-- RedirectInterceptor&#45;&gt;AppModule -->
<g id="edge32" class="edge">
<title>RedirectInterceptor&#45;&gt;AppModule</title>
<path fill="none" stroke="black" d="M4326,-122.38C4326,-146.28 4326,-185 4326,-185 4326,-185 4803.05,-185 4803.05,-185"/>
<polygon fill="black" stroke="black" points="4803.05,-188.5 4813.05,-185 4803.05,-181.5 4803.05,-188.5"/>
</g>
<!-- FooterComponent -->
<g id="node35" class="node">
<title>FooterComponent</title>
<polygon fill="#ffffb3" stroke="black" points="5880.88,-122 5763.12,-122 5763.12,-86 5880.88,-86 5880.88,-122"/>
<text text-anchor="middle" x="5822" y="-99.8" font-family="Times,serif" font-size="14.00">FooterComponent</text>
</g>
<!-- ComponentsModule -->
<g id="node38" class="node">
<title>ComponentsModule</title>
<polygon fill="#8dd3c7" stroke="black" points="5749.33,-187 5746.33,-191 5725.33,-191 5722.33,-187 5618.67,-187 5618.67,-151 5749.33,-151 5749.33,-187"/>
<text text-anchor="middle" x="5684" y="-164.8" font-family="Times,serif" font-size="14.00">ComponentsModule</text>
</g>
<!-- FooterComponent&#45;&gt;ComponentsModule -->
<g id="edge33" class="edge">
<title>FooterComponent&#45;&gt;ComponentsModule</title>
<path fill="none" stroke="black" d="M5842.4,-122.02C5842.4,-139.37 5842.4,-163 5842.4,-163 5842.4,-163 5759.34,-163 5759.34,-163"/>
<polygon fill="black" stroke="black" points="5759.34,-159.5 5749.34,-163 5759.34,-166.5 5759.34,-159.5"/>
</g>
<!-- NavbarComponent -->
<g id="node36" class="node">
<title>NavbarComponent</title>
<polygon fill="#ffffb3" stroke="black" points="5745.03,-122 5622.97,-122 5622.97,-86 5745.03,-86 5745.03,-122"/>
<text text-anchor="middle" x="5684" y="-99.8" font-family="Times,serif" font-size="14.00">NavbarComponent</text>
</g>
<!-- NavbarComponent&#45;&gt;ComponentsModule -->
<g id="edge34" class="edge">
<title>NavbarComponent&#45;&gt;ComponentsModule</title>
<path fill="none" stroke="black" d="M5684,-122.11C5684,-122.11 5684,-140.99 5684,-140.99"/>
<polygon fill="black" stroke="black" points="5680.5,-140.99 5684,-150.99 5687.5,-140.99 5680.5,-140.99"/>
</g>
<!-- SidebarComponent -->
<g id="node37" class="node">
<title>SidebarComponent</title>
<polygon fill="#ffffb3" stroke="black" points="5605.1,-122 5480.9,-122 5480.9,-86 5605.1,-86 5605.1,-122"/>
<text text-anchor="middle" x="5543" y="-99.8" font-family="Times,serif" font-size="14.00">SidebarComponent</text>
</g>
<!-- SidebarComponent&#45;&gt;ComponentsModule -->
<g id="edge35" class="edge">
<title>SidebarComponent&#45;&gt;ComponentsModule</title>
<path fill="none" stroke="black" d="M5562.18,-122.28C5562.18,-143.32 5562.18,-175 5562.18,-175 5562.18,-175 5608.81,-175 5608.81,-175"/>
<polygon fill="black" stroke="black" points="5608.81,-178.5 5618.81,-175 5608.81,-171.5 5608.81,-178.5"/>
</g>
<!-- FooterComponent  -->
<g id="node39" class="node">
<title>FooterComponent </title>
<polygon fill="#fb8072" stroke="black" points="5886.88,-252 5765.12,-252 5765.12,-216 5886.88,-216 5886.88,-252"/>
<text text-anchor="middle" x="5826" y="-229.8" font-family="Times,serif" font-size="14.00">FooterComponent </text>
</g>
<!-- ComponentsModule&#45;&gt;FooterComponent  -->
<g id="edge36" class="edge">
<title>ComponentsModule&#45;&gt;FooterComponent </title>
<path fill="none" stroke="black" stroke-dasharray="5,2" d="M5749.19,-175C5777.3,-175 5803.85,-175 5803.85,-175 5803.85,-175 5803.85,-205.98 5803.85,-205.98"/>
<polygon fill="black" stroke="black" points="5800.35,-205.98 5803.85,-215.98 5807.35,-205.98 5800.35,-205.98"/>
</g>
<!-- NavbarComponent  -->
<g id="node40" class="node">
<title>NavbarComponent </title>
<polygon fill="#fb8072" stroke="black" points="5747.03,-252 5620.97,-252 5620.97,-216 5747.03,-216 5747.03,-252"/>
<text text-anchor="middle" x="5684" y="-229.8" font-family="Times,serif" font-size="14.00">NavbarComponent </text>
</g>
<!-- ComponentsModule&#45;&gt;NavbarComponent  -->
<g id="edge37" class="edge">
<title>ComponentsModule&#45;&gt;NavbarComponent </title>
<path fill="none" stroke="black" stroke-dasharray="5,2" d="M5684,-187.11C5684,-187.11 5684,-205.99 5684,-205.99"/>
<polygon fill="black" stroke="black" points="5680.5,-205.99 5684,-215.99 5687.5,-205.99 5680.5,-205.99"/>
</g>
<!-- SidebarComponent  -->
<g id="node41" class="node">
<title>SidebarComponent </title>
<polygon fill="#fb8072" stroke="black" points="5602.6,-252 5475.4,-252 5475.4,-216 5602.6,-216 5602.6,-252"/>
<text text-anchor="middle" x="5539" y="-229.8" font-family="Times,serif" font-size="14.00">SidebarComponent </text>
</g>
<!-- ComponentsModule&#45;&gt;SidebarComponent  -->
<g id="edge38" class="edge">
<title>ComponentsModule&#45;&gt;SidebarComponent </title>
<path fill="none" stroke="black" stroke-dasharray="5,2" d="M5618.4,-181C5573.32,-181 5521.57,-181 5521.57,-181 5521.57,-181 5521.57,-205.76 5521.57,-205.76"/>
<polygon fill="black" stroke="black" points="5518.07,-205.76 5521.57,-215.76 5525.07,-205.76 5518.07,-205.76"/>
</g>
</g>
</svg>
