<?xml version="1.0" encoding="UTF-8" standalone="no"?>
<!DOCTYPE svg PUBLIC "-//W3C//DTD SVG 1.1//EN"
 "http://www.w3.org/Graphics/SVG/1.1/DTD/svg11.dtd">
<!-- Generated by graphviz version 2.47.0 (20210316.0004)
 -->
<!-- Title: dependencies Pages: 1 -->
<svg width="1251pt" height="284pt"
 viewBox="0.00 0.00 1251.00 284.00" xmlns="http://www.w3.org/2000/svg" xmlns:xlink="http://www.w3.org/1999/xlink">
<g id="graph0" class="graph" transform="scale(1 1) rotate(0) translate(4 280)">
<title>dependencies</title>
<polygon fill="white" stroke="transparent" points="-4,4 -4,-280 1247,-280 1247,4 -4,4"/>
<text text-anchor="start" x="600.51" y="-42.4" font-family="Times-12" font-weight="bold" font-size="14.00">Legend</text>
<polygon fill="#ffffb3" stroke="transparent" points="387.5,-10 387.5,-30 407.5,-30 407.5,-10 387.5,-10"/>
<text text-anchor="start" x="411.13" y="-15.4" font-family="Times-12" font-size="14.00"> &#160;Declarations</text>
<polygon fill="#8dd3c7" stroke="transparent" points="500.5,-10 500.5,-30 520.5,-30 520.5,-10 500.5,-10"/>
<text text-anchor="start" x="524.23" y="-15.4" font-family="Times-12" font-size="14.00"> &#160;Module</text>
<polygon fill="#80b1d3" stroke="transparent" points="586.5,-10 586.5,-30 606.5,-30 606.5,-10 586.5,-10"/>
<text text-anchor="start" x="610.28" y="-15.4" font-family="Times-12" font-size="14.00"> &#160;Bootstrap</text>
<polygon fill="#fdb462" stroke="transparent" points="683.5,-10 683.5,-30 703.5,-30 703.5,-10 683.5,-10"/>
<text text-anchor="start" x="707.17" y="-15.4" font-family="Times-12" font-size="14.00"> &#160;Providers</text>
<polygon fill="#fb8072" stroke="transparent" points="779.5,-10 779.5,-30 799.5,-30 799.5,-10 779.5,-10"/>
<text text-anchor="start" x="803.23" y="-15.4" font-family="Times-12" font-size="14.00"> &#160;Exports</text>
<g id="clust1" class="cluster">
<title>cluster_AppModule</title>
<polygon fill="none" stroke="black" stroke-dasharray="1,5" points="8,-70 8,-268 1235,-268 1235,-70 8,-70"/>
</g>
<g id="clust2" class="cluster">
<title>cluster_AppModule_declarations</title>
<polygon fill="none" stroke="black" points="574,-78 574,-130 1227,-130 1227,-78 574,-78"/>
</g>
<g id="clust10" class="cluster">
<title>cluster_AppModule_providers</title>
<polygon fill="none" stroke="black" points="168,-78 168,-130 566,-130 566,-78 168,-78"/>
</g>
<g id="clust7" class="cluster">
<title>cluster_AppModule_imports</title>
<polygon fill="none" stroke="black" points="16,-78 16,-130 160,-130 160,-78 16,-78"/>
</g>
<g id="clust9" class="cluster">
<title>cluster_AppModule_bootstrap</title>
<polygon fill="none" stroke="black" points="577,-208 577,-260 701,-260 701,-208 577,-208"/>
</g>
<!-- AdminLayoutComponent -->
<g id="node1" class="node">
<title>AdminLayoutComponent</title>
<polygon fill="#ffffb3" stroke="black" points="1218.88,-122 1059.12,-122 1059.12,-86 1218.88,-86 1218.88,-122"/>
<text text-anchor="middle" x="1139" y="-99.8" font-family="Times,serif" font-size="14.00">AdminLayoutComponent</text>
</g>
<!-- AppModule -->
<g id="node5" class="node">
<title>AppModule</title>
<polygon fill="#8dd3c7" stroke="black" points="680.66,-187 677.66,-191 656.66,-191 653.66,-187 597.34,-187 597.34,-151 680.66,-151 680.66,-187"/>
<text text-anchor="middle" x="639" y="-164.8" font-family="Times,serif" font-size="14.00">AppModule</text>
</g>
<!-- AdminLayoutComponent&#45;&gt;AppModule -->
<g id="edge1" class="edge">
<title>AdminLayoutComponent&#45;&gt;AppModule</title>
<path fill="none" stroke="black" d="M1139,-122.29C1139,-144.21 1139,-178 1139,-178 1139,-178 690.77,-178 690.77,-178"/>
<polygon fill="black" stroke="black" points="690.77,-174.5 680.77,-178 690.77,-181.5 690.77,-174.5"/>
</g>
<!-- AppComponent -->
<g id="node2" class="node">
<title>AppComponent</title>
<polygon fill="#ffffb3" stroke="black" points="1040.94,-122 935.06,-122 935.06,-86 1040.94,-86 1040.94,-122"/>
<text text-anchor="middle" x="988" y="-99.8" font-family="Times,serif" font-size="14.00">AppComponent</text>
</g>
<!-- AppComponent&#45;&gt;AppModule -->
<g id="edge2" class="edge">
<title>AppComponent&#45;&gt;AppModule</title>
<path fill="none" stroke="black" d="M988,-122.11C988,-141.34 988,-169 988,-169 988,-169 690.75,-169 690.75,-169"/>
<polygon fill="black" stroke="black" points="690.75,-165.5 680.75,-169 690.75,-172.5 690.75,-165.5"/>
</g>
<!-- CreditPledgePaymentComponent -->
<g id="node3" class="node">
<title>CreditPledgePaymentComponent</title>
<polygon fill="#ffffb3" stroke="black" points="917.92,-122 714.08,-122 714.08,-86 917.92,-86 917.92,-122"/>
<text text-anchor="middle" x="816" y="-99.8" font-family="Times,serif" font-size="14.00">CreditPledgePaymentComponent</text>
</g>
<!-- CreditPledgePaymentComponent&#45;&gt;AppModule -->
<g id="edge3" class="edge">
<title>CreditPledgePaymentComponent&#45;&gt;AppModule</title>
<path fill="none" stroke="black" d="M816,-122.03C816,-138.4 816,-160 816,-160 816,-160 690.95,-160 690.95,-160"/>
<polygon fill="black" stroke="black" points="690.95,-156.5 680.95,-160 690.95,-163.5 690.95,-156.5"/>
</g>
<!-- LoginComponent -->
<g id="node4" class="node">
<title>LoginComponent</title>
<polygon fill="#ffffb3" stroke="black" points="696.28,-122 581.72,-122 581.72,-86 696.28,-86 696.28,-122"/>
<text text-anchor="middle" x="639" y="-99.8" font-family="Times,serif" font-size="14.00">LoginComponent</text>
</g>
<!-- LoginComponent&#45;&gt;AppModule -->
<g id="edge4" class="edge">
<title>LoginComponent&#45;&gt;AppModule</title>
<path fill="none" stroke="black" d="M639,-122.11C639,-122.11 639,-140.99 639,-140.99"/>
<polygon fill="black" stroke="black" points="635.5,-140.99 639,-150.99 642.5,-140.99 635.5,-140.99"/>
</g>
<!-- AppComponent  -->
<g id="node7" class="node">
<title>AppComponent </title>
<polygon fill="#80b1d3" stroke="black" points="693.44,-252 584.56,-252 584.56,-216 693.44,-216 693.44,-252"/>
<text text-anchor="middle" x="639" y="-229.8" font-family="Times,serif" font-size="14.00">AppComponent </text>
</g>
<!-- AppModule&#45;&gt;AppComponent  -->
<g id="edge6" class="edge">
<title>AppModule&#45;&gt;AppComponent </title>
<path fill="none" stroke="black" stroke-dasharray="1,5" d="M639,-187.11C639,-187.11 639,-205.99 639,-205.99"/>
<polygon fill="black" stroke="black" points="635.5,-205.99 639,-215.99 642.5,-205.99 635.5,-205.99"/>
</g>
<!-- AppRoutingModule -->
<g id="node6" class="node">
<title>AppRoutingModule</title>
<polygon fill="#8dd3c7" stroke="black" points="152.27,-122 149.27,-126 128.27,-126 125.27,-122 23.73,-122 23.73,-86 152.27,-86 152.27,-122"/>
<text text-anchor="middle" x="88" y="-99.8" font-family="Times,serif" font-size="14.00">AppRoutingModule</text>
</g>
<!-- AppRoutingModule&#45;&gt;AppModule -->
<g id="edge5" class="edge">
<title>AppRoutingModule&#45;&gt;AppModule</title>
<path fill="none" stroke="black" d="M88,-122.29C88,-144.21 88,-178 88,-178 88,-178 587.13,-178 587.13,-178"/>
<polygon fill="black" stroke="black" points="587.13,-181.5 597.13,-178 587.13,-174.5 587.13,-181.5"/>
</g>
<!-- JwtInterceptorService -->
<g id="node8" class="node">
<title>JwtInterceptorService</title>
<ellipse fill="#fdb462" stroke="black" cx="462" cy="-104" rx="95.52" ry="18"/>
<text text-anchor="middle" x="462" y="-99.8" font-family="Times,serif" font-size="14.00">JwtInterceptorService</text>
</g>
<!-- JwtInterceptorService&#45;&gt;AppModule -->
<g id="edge7" class="edge">
<title>JwtInterceptorService&#45;&gt;AppModule</title>
<path fill="none" stroke="black" d="M462,-122.03C462,-138.4 462,-160 462,-160 462,-160 587.05,-160 587.05,-160"/>
<polygon fill="black" stroke="black" points="587.05,-163.5 597.05,-160 587.05,-156.5 587.05,-163.5"/>
</g>
<!-- RedirectInterceptor -->
<g id="node9" class="node">
<title>RedirectInterceptor</title>
<ellipse fill="#fdb462" stroke="black" cx="262" cy="-104" rx="86.21" ry="18"/>
<text text-anchor="middle" x="262" y="-99.8" font-family="Times,serif" font-size="14.00">RedirectInterceptor</text>
</g>
<!-- RedirectInterceptor&#45;&gt;AppModule -->
<g id="edge8" class="edge">
<title>RedirectInterceptor&#45;&gt;AppModule</title>
<path fill="none" stroke="black" d="M262,-122.11C262,-141.34 262,-169 262,-169 262,-169 587.21,-169 587.21,-169"/>
<polygon fill="black" stroke="black" points="587.21,-172.5 597.21,-169 587.21,-165.5 587.21,-172.5"/>
</g>
</g>
</svg>
