<?xml version="1.0" encoding="UTF-8" standalone="no"?>
<!DOCTYPE svg PUBLIC "-//W3C//DTD SVG 1.1//EN"
 "http://www.w3.org/Graphics/SVG/1.1/DTD/svg11.dtd">
<!-- Generated by graphviz version 2.47.0 (20210316.0004)
 -->
<!-- Title: dependencies Pages: 1 -->
<svg width="4232pt" height="211pt"
 viewBox="0.00 0.00 4232.00 211.00" xmlns="http://www.w3.org/2000/svg" xmlns:xlink="http://www.w3.org/1999/xlink">
<g id="graph0" class="graph" transform="scale(1 1) rotate(0) translate(4 207)">
<title>dependencies</title>
<polygon fill="white" stroke="transparent" points="-4,4 -4,-207 4228,-207 4228,4 -4,4"/>
<text text-anchor="start" x="2091.01" y="-42.4" font-family="Times-12" font-weight="bold" font-size="14.00">Legend</text>
<polygon fill="#ffffb3" stroke="transparent" points="1878,-10 1878,-30 1898,-30 1898,-10 1878,-10"/>
<text text-anchor="start" x="1901.63" y="-15.4" font-family="Times-12" font-size="14.00"> &#160;Declarations</text>
<polygon fill="#8dd3c7" stroke="transparent" points="1991,-10 1991,-30 2011,-30 2011,-10 1991,-10"/>
<text text-anchor="start" x="2014.73" y="-15.4" font-family="Times-12" font-size="14.00"> &#160;Module</text>
<polygon fill="#80b1d3" stroke="transparent" points="2077,-10 2077,-30 2097,-30 2097,-10 2077,-10"/>
<text text-anchor="start" x="2100.78" y="-15.4" font-family="Times-12" font-size="14.00"> &#160;Bootstrap</text>
<polygon fill="#fdb462" stroke="transparent" points="2174,-10 2174,-30 2194,-30 2194,-10 2174,-10"/>
<text text-anchor="start" x="2197.67" y="-15.4" font-family="Times-12" font-size="14.00"> &#160;Providers</text>
<polygon fill="#fb8072" stroke="transparent" points="2270,-10 2270,-30 2290,-30 2290,-10 2270,-10"/>
<text text-anchor="start" x="2293.73" y="-15.4" font-family="Times-12" font-size="14.00"> &#160;Exports</text>
<g id="clust1" class="cluster">
<title>cluster_AdminLayoutModule</title>
<polygon fill="none" stroke="black" stroke-dasharray="1,5" points="8,-70 8,-195 4216,-195 4216,-70 8,-70"/>
</g>
<g id="clust2" class="cluster">
<title>cluster_AdminLayoutModule_declarations</title>
<polygon fill="none" stroke="black" points="16,-78 16,-130 4208,-130 4208,-78 16,-78"/>
</g>
<!-- AddDonationComponent -->
<g id="node1" class="node">
<title>AddDonationComponent</title>
<polygon fill="#ffffb3" stroke="black" points="4199.54,-122 4042.46,-122 4042.46,-86 4199.54,-86 4199.54,-122"/>
<text text-anchor="middle" x="4121" y="-99.8" font-family="Times,serif" font-size="14.00">AddDonationComponent</text>
</g>
<!-- AdminLayoutModule -->
<g id="node25" class="node">
<title>AdminLayoutModule</title>
<polygon fill="#8dd3c7" stroke="black" points="2120.1,-187 2117.1,-191 2096.1,-191 2093.1,-187 1981.9,-187 1981.9,-151 2120.1,-151 2120.1,-187"/>
<text text-anchor="middle" x="2051" y="-164.8" font-family="Times,serif" font-size="14.00">AdminLayoutModule</text>
</g>
<!-- AddDonationComponent&#45;&gt;AdminLayoutModule -->
<g id="edge1" class="edge">
<title>AddDonationComponent&#45;&gt;AdminLayoutModule</title>
<path fill="none" stroke="black" d="M4121,-122.15C4121,-145.76 4121,-184 4121,-184 4121,-184 2130.17,-184 2130.17,-184"/>
<polygon fill="black" stroke="black" points="2130.17,-180.5 2120.17,-184 2130.17,-187.5 2130.17,-180.5"/>
</g>
<!-- AddExpenditureComponent -->
<g id="node2" class="node">
<title>AddExpenditureComponent</title>
<polygon fill="#ffffb3" stroke="black" points="4023.86,-122 3850.14,-122 3850.14,-86 4023.86,-86 4023.86,-122"/>
<text text-anchor="middle" x="3937" y="-99.8" font-family="Times,serif" font-size="14.00">AddExpenditureComponent</text>
</g>
<!-- AddExpenditureComponent&#45;&gt;AdminLayoutModule -->
<g id="edge2" class="edge">
<title>AddExpenditureComponent&#45;&gt;AdminLayoutModule</title>
<path fill="none" stroke="black" d="M3937,-122.09C3937,-145.13 3937,-182 3937,-182 3937,-182 2130.08,-182 2130.08,-182"/>
<polygon fill="black" stroke="black" points="2130.08,-178.5 2120.08,-182 2130.08,-185.5 2130.08,-178.5"/>
</g>
<!-- AddMemberFormComponent -->
<g id="node3" class="node">
<title>AddMemberFormComponent</title>
<polygon fill="#ffffb3" stroke="black" points="3831.7,-122 3648.3,-122 3648.3,-86 3831.7,-86 3831.7,-122"/>
<text text-anchor="middle" x="3740" y="-99.8" font-family="Times,serif" font-size="14.00">AddMemberFormComponent</text>
</g>
<!-- AddMemberFormComponent&#45;&gt;AdminLayoutModule -->
<g id="edge3" class="edge">
<title>AddMemberFormComponent&#45;&gt;AdminLayoutModule</title>
<path fill="none" stroke="black" d="M3740,-122.29C3740,-144.21 3740,-178 3740,-178 3740,-178 2130.09,-178 2130.09,-178"/>
<polygon fill="black" stroke="black" points="2130.09,-174.5 2120.09,-178 2130.09,-181.5 2130.09,-174.5"/>
</g>
<!-- ContactUsComponent -->
<g id="node4" class="node">
<title>ContactUsComponent</title>
<polygon fill="#ffffb3" stroke="black" points="3630.43,-122 3489.57,-122 3489.57,-86 3630.43,-86 3630.43,-122"/>
<text text-anchor="middle" x="3560" y="-99.8" font-family="Times,serif" font-size="14.00">ContactUsComponent</text>
</g>
<!-- ContactUsComponent&#45;&gt;AdminLayoutModule -->
<g id="edge4" class="edge">
<title>ContactUsComponent&#45;&gt;AdminLayoutModule</title>
<path fill="none" stroke="black" d="M3560,-122.28C3560,-143.32 3560,-175 3560,-175 3560,-175 2130.26,-175 2130.26,-175"/>
<polygon fill="black" stroke="black" points="2130.26,-171.5 2120.26,-175 2130.26,-178.5 2130.26,-171.5"/>
</g>
<!-- DashboardComponent -->
<g id="node5" class="node">
<title>DashboardComponent</title>
<polygon fill="#ffffb3" stroke="black" points="3471.97,-122 3330.03,-122 3330.03,-86 3471.97,-86 3471.97,-122"/>
<text text-anchor="middle" x="3401" y="-99.8" font-family="Times,serif" font-size="14.00">DashboardComponent</text>
</g>
<!-- DashboardComponent&#45;&gt;AdminLayoutModule -->
<g id="edge5" class="edge">
<title>DashboardComponent&#45;&gt;AdminLayoutModule</title>
<path fill="none" stroke="black" d="M3401,-122.22C3401,-142.37 3401,-172 3401,-172 3401,-172 2130.27,-172 2130.27,-172"/>
<polygon fill="black" stroke="black" points="2130.27,-168.5 2120.27,-172 2130.27,-175.5 2130.27,-168.5"/>
</g>
<!-- DonatorReportSelModalComponent -->
<g id="node6" class="node">
<title>DonatorReportSelModalComponent</title>
<polygon fill="#ffffb3" stroke="black" points="3311.74,-122 3092.26,-122 3092.26,-86 3311.74,-86 3311.74,-122"/>
<text text-anchor="middle" x="3202" y="-99.8" font-family="Times,serif" font-size="14.00">DonatorReportSelModalComponent</text>
</g>
<!-- DonatorReportSelModalComponent&#45;&gt;AdminLayoutModule -->
<g id="edge6" class="edge">
<title>DonatorReportSelModalComponent&#45;&gt;AdminLayoutModule</title>
<path fill="none" stroke="black" d="M3202,-122.11C3202,-141.34 3202,-169 3202,-169 3202,-169 2130.41,-169 2130.41,-169"/>
<polygon fill="black" stroke="black" points="2130.41,-165.5 2120.41,-169 2130.41,-172.5 2130.41,-165.5"/>
</g>
<!-- DonatorsManagingComponent -->
<g id="node7" class="node">
<title>DonatorsManagingComponent</title>
<polygon fill="#ffffb3" stroke="black" points="3073.91,-122 2884.09,-122 2884.09,-86 3073.91,-86 3073.91,-122"/>
<text text-anchor="middle" x="2979" y="-99.8" font-family="Times,serif" font-size="14.00">DonatorsManagingComponent</text>
</g>
<!-- DonatorsManagingComponent&#45;&gt;AdminLayoutModule -->
<g id="edge7" class="edge">
<title>DonatorsManagingComponent&#45;&gt;AdminLayoutModule</title>
<path fill="none" stroke="black" d="M2979,-122.22C2979,-140.83 2979,-167 2979,-167 2979,-167 2130.37,-167 2130.37,-167"/>
<polygon fill="black" stroke="black" points="2130.37,-163.5 2120.37,-167 2130.37,-170.5 2130.37,-163.5"/>
</g>
<!-- DonatorsReportComponent -->
<g id="node8" class="node">
<title>DonatorsReportComponent</title>
<polygon fill="#ffffb3" stroke="black" points="2866.25,-122 2695.75,-122 2695.75,-86 2866.25,-86 2866.25,-122"/>
<text text-anchor="middle" x="2781" y="-99.8" font-family="Times,serif" font-size="14.00">DonatorsReportComponent</text>
</g>
<!-- DonatorsReportComponent&#45;&gt;AdminLayoutModule -->
<g id="edge8" class="edge">
<title>DonatorsReportComponent&#45;&gt;AdminLayoutModule</title>
<path fill="none" stroke="black" d="M2781,-122.02C2781,-139.37 2781,-163 2781,-163 2781,-163 2130.33,-163 2130.33,-163"/>
<polygon fill="black" stroke="black" points="2130.33,-159.5 2120.33,-163 2130.33,-166.5 2130.33,-159.5"/>
</g>
<!-- ExpendituresDisplayComponent -->
<g id="node9" class="node">
<title>ExpendituresDisplayComponent</title>
<polygon fill="#ffffb3" stroke="black" points="2677.25,-122 2478.75,-122 2478.75,-86 2677.25,-86 2677.25,-122"/>
<text text-anchor="middle" x="2578" y="-99.8" font-family="Times,serif" font-size="14.00">ExpendituresDisplayComponent</text>
</g>
<!-- ExpendituresDisplayComponent&#45;&gt;AdminLayoutModule -->
<g id="edge9" class="edge">
<title>ExpendituresDisplayComponent&#45;&gt;AdminLayoutModule</title>
<path fill="none" stroke="black" d="M2578,-122.03C2578,-138.4 2578,-160 2578,-160 2578,-160 2130.17,-160 2130.17,-160"/>
<polygon fill="black" stroke="black" points="2130.17,-156.5 2120.17,-160 2130.17,-163.5 2130.17,-156.5"/>
</g>
<!-- IconsComponent -->
<g id="node10" class="node">
<title>IconsComponent</title>
<polygon fill="#ffffb3" stroke="black" points="2460.65,-122 2349.35,-122 2349.35,-86 2460.65,-86 2460.65,-122"/>
<text text-anchor="middle" x="2405" y="-99.8" font-family="Times,serif" font-size="14.00">IconsComponent</text>
</g>
<!-- IconsComponent&#45;&gt;AdminLayoutModule -->
<g id="edge10" class="edge">
<title>IconsComponent&#45;&gt;AdminLayoutModule</title>
<path fill="none" stroke="black" d="M2405,-122.24C2405,-137.57 2405,-157 2405,-157 2405,-157 2130.1,-157 2130.1,-157"/>
<polygon fill="black" stroke="black" points="2130.1,-153.5 2120.1,-157 2130.1,-160.5 2130.1,-153.5"/>
</g>
<!-- InfoPageComponent -->
<g id="node11" class="node">
<title>InfoPageComponent</title>
<polygon fill="#ffffb3" stroke="black" points="2330.87,-122 2199.13,-122 2199.13,-86 2330.87,-86 2330.87,-122"/>
<text text-anchor="middle" x="2265" y="-99.8" font-family="Times,serif" font-size="14.00">InfoPageComponent</text>
</g>
<!-- InfoPageComponent&#45;&gt;AdminLayoutModule -->
<g id="edge11" class="edge">
<title>InfoPageComponent&#45;&gt;AdminLayoutModule</title>
<path fill="none" stroke="black" d="M2265,-122.05C2265,-136.37 2265,-154 2265,-154 2265,-154 2130.18,-154 2130.18,-154"/>
<polygon fill="black" stroke="black" points="2130.18,-150.5 2120.18,-154 2130.18,-157.5 2130.18,-150.5"/>
</g>
<!-- InvoiceComponent -->
<g id="node12" class="node">
<title>InvoiceComponent</title>
<polygon fill="#ffffb3" stroke="black" points="2180.81,-122 2057.19,-122 2057.19,-86 2180.81,-86 2180.81,-122"/>
<text text-anchor="middle" x="2119" y="-99.8" font-family="Times,serif" font-size="14.00">InvoiceComponent</text>
</g>
<!-- InvoiceComponent&#45;&gt;AdminLayoutModule -->
<g id="edge12" class="edge">
<title>InvoiceComponent&#45;&gt;AdminLayoutModule</title>
<path fill="none" stroke="black" d="M2088.7,-122.11C2088.7,-122.11 2088.7,-140.99 2088.7,-140.99"/>
<polygon fill="black" stroke="black" points="2085.2,-140.99 2088.7,-150.99 2092.2,-140.99 2085.2,-140.99"/>
</g>
<!-- MapsComponent -->
<g id="node13" class="node">
<title>MapsComponent</title>
<polygon fill="#ffffb3" stroke="black" points="2039.44,-122 1926.56,-122 1926.56,-86 2039.44,-86 2039.44,-122"/>
<text text-anchor="middle" x="1983" y="-99.8" font-family="Times,serif" font-size="14.00">MapsComponent</text>
</g>
<!-- MapsComponent&#45;&gt;AdminLayoutModule -->
<g id="edge13" class="edge">
<title>MapsComponent&#45;&gt;AdminLayoutModule</title>
<path fill="none" stroke="black" d="M2010.59,-122.11C2010.59,-122.11 2010.59,-140.99 2010.59,-140.99"/>
<polygon fill="black" stroke="black" points="2007.09,-140.99 2010.59,-150.99 2014.09,-140.99 2007.09,-140.99"/>
</g>
<!-- MemberAccountPageComponent -->
<g id="node14" class="node">
<title>MemberAccountPageComponent</title>
<polygon fill="#ffffb3" stroke="black" points="1908.9,-122 1705.1,-122 1705.1,-86 1908.9,-86 1908.9,-122"/>
<text text-anchor="middle" x="1807" y="-99.8" font-family="Times,serif" font-size="14.00">MemberAccountPageComponent</text>
</g>
<!-- MemberAccountPageComponent&#45;&gt;AdminLayoutModule -->
<g id="edge14" class="edge">
<title>MemberAccountPageComponent&#45;&gt;AdminLayoutModule</title>
<path fill="none" stroke="black" d="M1807,-122.05C1807,-136.37 1807,-154 1807,-154 1807,-154 1971.73,-154 1971.73,-154"/>
<polygon fill="black" stroke="black" points="1971.73,-157.5 1981.73,-154 1971.73,-150.5 1971.73,-157.5"/>
</g>
<!-- MemberDetailsComponent -->
<g id="node15" class="node">
<title>MemberDetailsComponent</title>
<polygon fill="#ffffb3" stroke="black" points="1687.41,-122 1518.59,-122 1518.59,-86 1687.41,-86 1687.41,-122"/>
<text text-anchor="middle" x="1603" y="-99.8" font-family="Times,serif" font-size="14.00">MemberDetailsComponent</text>
</g>
<!-- MemberDetailsComponent&#45;&gt;AdminLayoutModule -->
<g id="edge15" class="edge">
<title>MemberDetailsComponent&#45;&gt;AdminLayoutModule</title>
<path fill="none" stroke="black" d="M1603,-122.24C1603,-137.57 1603,-157 1603,-157 1603,-157 1971.49,-157 1971.49,-157"/>
<polygon fill="black" stroke="black" points="1971.49,-160.5 1981.49,-157 1971.49,-153.5 1971.49,-160.5"/>
</g>
<!-- NotificationsComponent -->
<g id="node16" class="node">
<title>NotificationsComponent</title>
<polygon fill="#ffffb3" stroke="black" points="1501.43,-122 1346.57,-122 1346.57,-86 1501.43,-86 1501.43,-122"/>
<text text-anchor="middle" x="1424" y="-99.8" font-family="Times,serif" font-size="14.00">NotificationsComponent</text>
</g>
<!-- NotificationsComponent&#45;&gt;AdminLayoutModule -->
<g id="edge16" class="edge">
<title>NotificationsComponent&#45;&gt;AdminLayoutModule</title>
<path fill="none" stroke="black" d="M1424,-122.03C1424,-138.4 1424,-160 1424,-160 1424,-160 1971.81,-160 1971.81,-160"/>
<polygon fill="black" stroke="black" points="1971.81,-163.5 1981.81,-160 1971.81,-156.5 1971.81,-163.5"/>
</g>
<!-- PaginationComponent -->
<g id="node17" class="node">
<title>PaginationComponent</title>
<polygon fill="#ffffb3" stroke="black" points="1328.72,-122 1187.28,-122 1187.28,-86 1328.72,-86 1328.72,-122"/>
<text text-anchor="middle" x="1258" y="-99.8" font-family="Times,serif" font-size="14.00">PaginationComponent</text>
</g>
<!-- PaginationComponent&#45;&gt;AdminLayoutModule -->
<g id="edge17" class="edge">
<title>PaginationComponent&#45;&gt;AdminLayoutModule</title>
<path fill="none" stroke="black" d="M1258,-122.02C1258,-139.37 1258,-163 1258,-163 1258,-163 1971.67,-163 1971.67,-163"/>
<polygon fill="black" stroke="black" points="1971.67,-166.5 1981.67,-163 1971.67,-159.5 1971.67,-166.5"/>
</g>
<!-- PledgePaymentComponent -->
<g id="node18" class="node">
<title>PledgePaymentComponent</title>
<polygon fill="#ffffb3" stroke="black" points="1169.43,-122 1000.57,-122 1000.57,-86 1169.43,-86 1169.43,-122"/>
<text text-anchor="middle" x="1085" y="-99.8" font-family="Times,serif" font-size="14.00">PledgePaymentComponent</text>
</g>
<!-- PledgePaymentComponent&#45;&gt;AdminLayoutModule -->
<g id="edge18" class="edge">
<title>PledgePaymentComponent&#45;&gt;AdminLayoutModule</title>
<path fill="none" stroke="black" d="M1085,-122.22C1085,-140.83 1085,-167 1085,-167 1085,-167 1971.92,-167 1971.92,-167"/>
<polygon fill="black" stroke="black" points="1971.92,-170.5 1981.92,-167 1971.92,-163.5 1971.92,-170.5"/>
</g>
<!-- TableListComponent -->
<g id="node19" class="node">
<title>TableListComponent</title>
<polygon fill="#ffffb3" stroke="black" points="982.48,-122 847.52,-122 847.52,-86 982.48,-86 982.48,-122"/>
<text text-anchor="middle" x="915" y="-99.8" font-family="Times,serif" font-size="14.00">TableListComponent</text>
</g>
<!-- TableListComponent&#45;&gt;AdminLayoutModule -->
<g id="edge19" class="edge">
<title>TableListComponent&#45;&gt;AdminLayoutModule</title>
<path fill="none" stroke="black" d="M915,-122.11C915,-141.34 915,-169 915,-169 915,-169 1971.65,-169 1971.65,-169"/>
<polygon fill="black" stroke="black" points="1971.65,-172.5 1981.65,-169 1971.65,-165.5 1971.65,-172.5"/>
</g>
<!-- TypographyComponent -->
<g id="node20" class="node">
<title>TypographyComponent</title>
<polygon fill="#ffffb3" stroke="black" points="829.76,-122 680.24,-122 680.24,-86 829.76,-86 829.76,-122"/>
<text text-anchor="middle" x="755" y="-99.8" font-family="Times,serif" font-size="14.00">TypographyComponent</text>
</g>
<!-- TypographyComponent&#45;&gt;AdminLayoutModule -->
<g id="edge20" class="edge">
<title>TypographyComponent&#45;&gt;AdminLayoutModule</title>
<path fill="none" stroke="black" d="M755,-122.22C755,-142.37 755,-172 755,-172 755,-172 1971.78,-172 1971.78,-172"/>
<polygon fill="black" stroke="black" points="1971.78,-175.5 1981.78,-172 1971.78,-168.5 1971.78,-175.5"/>
</g>
<!-- UpgradeComponent -->
<g id="node21" class="node">
<title>UpgradeComponent</title>
<polygon fill="#ffffb3" stroke="black" points="661.53,-122 532.47,-122 532.47,-86 661.53,-86 661.53,-122"/>
<text text-anchor="middle" x="597" y="-99.8" font-family="Times,serif" font-size="14.00">UpgradeComponent</text>
</g>
<!-- UpgradeComponent&#45;&gt;AdminLayoutModule -->
<g id="edge21" class="edge">
<title>UpgradeComponent&#45;&gt;AdminLayoutModule</title>
<path fill="none" stroke="black" d="M597,-122.28C597,-143.32 597,-175 597,-175 597,-175 1971.85,-175 1971.85,-175"/>
<polygon fill="black" stroke="black" points="1971.85,-178.5 1981.85,-175 1971.85,-171.5 1971.85,-178.5"/>
</g>
<!-- UserManagementComponent -->
<g id="node22" class="node">
<title>UserManagementComponent</title>
<polygon fill="#ffffb3" stroke="black" points="514.34,-122 333.66,-122 333.66,-86 514.34,-86 514.34,-122"/>
<text text-anchor="middle" x="424" y="-99.8" font-family="Times,serif" font-size="14.00">UserManagementComponent</text>
</g>
<!-- UserManagementComponent&#45;&gt;AdminLayoutModule -->
<g id="edge22" class="edge">
<title>UserManagementComponent&#45;&gt;AdminLayoutModule</title>
<path fill="none" stroke="black" d="M424,-122.29C424,-144.21 424,-178 424,-178 424,-178 1971.87,-178 1971.87,-178"/>
<polygon fill="black" stroke="black" points="1971.87,-181.5 1981.87,-178 1971.87,-174.5 1971.87,-181.5"/>
</g>
<!-- UserProfileComponent -->
<g id="node23" class="node">
<title>UserProfileComponent</title>
<polygon fill="#ffffb3" stroke="black" points="315.86,-122 170.14,-122 170.14,-86 315.86,-86 315.86,-122"/>
<text text-anchor="middle" x="243" y="-99.8" font-family="Times,serif" font-size="14.00">UserProfileComponent</text>
</g>
<!-- UserProfileComponent&#45;&gt;AdminLayoutModule -->
<g id="edge23" class="edge">
<title>UserProfileComponent&#45;&gt;AdminLayoutModule</title>
<path fill="none" stroke="black" d="M243,-122.09C243,-145.13 243,-182 243,-182 243,-182 1971.78,-182 1971.78,-182"/>
<polygon fill="black" stroke="black" points="1971.78,-185.5 1981.78,-182 1971.78,-178.5 1971.78,-185.5"/>
</g>
<!-- ZmanimComponent -->
<g id="node24" class="node">
<title>ZmanimComponent</title>
<polygon fill="#ffffb3" stroke="black" points="152.27,-122 23.73,-122 23.73,-86 152.27,-86 152.27,-122"/>
<text text-anchor="middle" x="88" y="-99.8" font-family="Times,serif" font-size="14.00">ZmanimComponent</text>
</g>
<!-- ZmanimComponent&#45;&gt;AdminLayoutModule -->
<g id="edge24" class="edge">
<title>ZmanimComponent&#45;&gt;AdminLayoutModule</title>
<path fill="none" stroke="black" d="M88,-122.15C88,-145.76 88,-184 88,-184 88,-184 1971.71,-184 1971.71,-184"/>
<polygon fill="black" stroke="black" points="1971.71,-187.5 1981.71,-184 1971.71,-180.5 1971.71,-187.5"/>
</g>
</g>
</svg>
